<svg xmlns="http://www.w3.org/2000/svg" width="235" height="211.4" viewBox="0 0 235 211.4"><style type="text/css">.st0{fill:#13143A;} .st1{fill:#FFFFFF;} .st2{fill:#231F20;} .st3{fill:none;stroke:#FFFFFF;stroke-width:19;stroke-miterlimit:10;} .st4{font-family:&apos;Merriweather-Bold&apos;;} .st5{font-size:17px;} .st6{fill:#FFFFFF;stroke:#FFFFFF;stroke-miterlimit:10;}</style><text transform="translate(63.653 188.201)" class="st4 st5">Add Project</text><circle class="st0" cx="117.5" cy="80.1" r="72"/><path class="st6" d="M106.9 96.8v9.3h-15.2v16.7h-8.5v-16.7h-15.2v-9.3h15.2v-16.7h8.5v16.7z"/><path class="st1" d="M165.8 58.7c0 5.3-1.9 10.4-4.4 15.2-1.3 2.6-2.9 5.1-4.4 7.6-2.2 3.6-4.6 6.8-6.6 10.5-.7 1.3-4.3 11.4-3.9 11.4h.3c1.7 0 3 1.6 3 3.3 0 .8-.3 1.7-.9 2.2-.1.1-.3.3-.5.4.9.5 1.5 1.5 1.5 2.6 0 .8-.3 1.6-.9 2.1-.2.2-.4.3-.5.4.9.5 1.4 1.4 1.4 2.5 0 .8-.3 1.5-.9 2.1l-.2.2c.7.5 1.1 1.4 1.1 2.3 0 .8-.3 1.6-.9 2.1-.5.5-1.3.9-2.1.9h-1.2c.1 0 .1.4.1.7 0 .8-.3 1.2-.9 1.8-.6.5-1.3.6-2.1.6h-.7l-7.3 5h-4.6l-7.8-5h-.2c-1.7 0-3-1-3-2.6 0-.2 0-.4.1-.4h-1.3c-1.7 0-3-1.3-3-2.9 0-.8.3-1.6.9-2.1l.2-.2c-.7-.5-1.1-1.4-1.1-2.3 0-.8.3-1.5.9-2.1.2-.2.4-.3.5-.4-.9-.5-1.4-1.4-1.4-2.5 0-.8.3-1.5.9-2.1.1-.1.3-.3.5-.4-.9-.5-1.5-1.5-1.5-2.5 0-.8.3-1.9.9-2.4.6-.5 1.3-1.2 2.1-1.2h.1c.4 0-1.8-9.4-2-9.9-1.9-5.9-4.9-11.3-9-16.3-4.6-5.6-7.7-11.5-7.7-18.6 0-15.9 14.9-28.8 33.3-28.8 18.3 0 33.2 12.9 33.2 28.8z"/></svg>