<?xml version="1.0" encoding="utf-8"?>
<!-- Generator: Adobe Illustrator 19.2.0, SVG Export Plug-In . SVG Version: 6.00 Build 0)  -->
<svg version="1.1" id="Layer_1" xmlns="http://www.w3.org/2000/svg" xmlns:xlink="http://www.w3.org/1999/xlink" x="0px" y="0px"
	 width="235px" height="211.4px" viewBox="0 0 235 211.4" style="enable-background:new 0 0 235 211.4;" xml:space="preserve">
<style type="text/css">
	.st0{fill:#13143A;}
	.st1{fill:#FFFFFF;}
	.st2{fill:#231F20;}
	.st3{fill:none;stroke:#FFFFFF;stroke-width:19;stroke-miterlimit:10;}
	.st4{font-family:'Merriweather-Bold';}
	.st5{font-size:17px;}
	.st6{fill:#FFFFFF;stroke:#FFFFFF;stroke-miterlimit:10;}
</style>
<text transform="matrix(1 0 0 1 63.6533 188.2008)" class="st4 st5">Add Project</text>
<circle class="st0" cx="117.5" cy="80.1" r="72"/>
<polygon class="st6" points="106.9,96.8 106.9,106.1 91.7,106.1 91.7,122.8 83.2,122.8 83.2,106.1 68,106.1 68,96.8 83.2,96.8 
	83.2,80.1 91.7,80.1 91.7,96.8 "/>
<path class="st1" d="M165.8,58.7c0,5.3-1.9,10.4-4.4,15.2c-1.3,2.6-2.9,5.1-4.4,7.6c-2.2,3.6-4.6,6.8-6.6,10.5
	c-0.7,1.3-4.3,11.4-3.9,11.4h0.3c1.7,0,3,1.6,3,3.3c0,0.8-0.3,1.7-0.9,2.2c-0.1,0.1-0.3,0.3-0.5,0.4c0.9,0.5,1.5,1.5,1.5,2.6
	c0,0.8-0.3,1.6-0.9,2.1c-0.2,0.2-0.4,0.3-0.5,0.4c0.9,0.5,1.4,1.4,1.4,2.5c0,0.8-0.3,1.5-0.9,2.1c-0.1,0.1-0.1,0.1-0.2,0.2
	c0.7,0.5,1.1,1.4,1.1,2.3c0,0.8-0.3,1.6-0.9,2.1c-0.5,0.5-1.3,0.9-2.1,0.9h-1.2c0.1,0,0.1,0.4,0.1,0.7c0,0.8-0.3,1.2-0.9,1.8
	c-0.6,0.5-1.3,0.6-2.1,0.6h-0.7l-7.3,5h-4.6l-7.8-5h-0.2c-1.7,0-3-1-3-2.6c0-0.2,0-0.4,0.1-0.4H118c-1.7,0-3-1.3-3-2.9
	c0-0.8,0.3-1.6,0.9-2.1c0.1-0.1,0.1-0.1,0.2-0.2c-0.7-0.5-1.1-1.4-1.1-2.3c0-0.8,0.3-1.5,0.9-2.1c0.2-0.2,0.4-0.3,0.5-0.4
	c-0.9-0.5-1.4-1.4-1.4-2.5c0-0.8,0.3-1.5,0.9-2.1c0.1-0.1,0.3-0.3,0.5-0.4c-0.9-0.5-1.5-1.5-1.5-2.5c0-0.8,0.3-1.9,0.9-2.4
	c0.6-0.5,1.3-1.2,2.1-1.2h0.1c0.4,0-1.8-9.4-2-9.9c-1.9-5.9-4.9-11.3-9-16.3c-4.6-5.6-7.7-11.5-7.7-18.6c0-15.9,14.9-28.8,33.3-28.8
	C150.9,29.9,165.8,42.8,165.8,58.7z"/>
</svg>
