<svg xmlns="http://www.w3.org/2000/svg" width="235" height="211.4" viewBox="0 0 235 211.4"><style type="text/css">.st0{fill:#13143A;} .st1{fill:#FFFFFF;} .st2{fill:#231F20;} .st3{fill:none;stroke:#FFFFFF;stroke-width:19;stroke-miterlimit:10;} .st4{font-family:&apos;Merriweather-Bold&apos;;} .st5{font-size:17px;} .st6{fill:#FFFFFF;stroke:#FFFFFF;stroke-miterlimit:10;}</style><text transform="translate(58.606 183.536)" class="st4 st5">Add Designer</text><circle class="st0" cx="117.5" cy="86.4" r="72"/><path class="st1" d="M158.4 100.5v31.9h-35v-8.3h-44.7v-47.8c0-7.4 6-13.4 13.4-13.4h1.7c-2.6-2.5-4.2-6-4.2-9.9 0-7.6 6.2-13.8 13.8-13.8 7.6 0 13.8 6.2 13.8 13.8 0 3.9-1.6 7.4-4.2 9.9 7.4.5 13.1 6.7 13.1 14.2v14.8c2.1-2.6 5.2-4.4 8.8-4.7-2.3-1.9-3.8-4.8-3.8-8 0-5.7 4.6-10.4 10.4-10.4 5.7 0 10.4 4.6 10.4 10.4 0 3.4-1.6 6.4-4.1 8.2 6 1.2 10.6 6.6 10.6 13.1z"/></svg>