<?xml version="1.0" encoding="utf-8"?>
<!-- Generator: Adobe Illustrator 19.2.0, SVG Export Plug-In . SVG Version: 6.00 Build 0)  -->
<svg version="1.1" id="Layer_1" xmlns="http://www.w3.org/2000/svg" xmlns:xlink="http://www.w3.org/1999/xlink" x="0px" y="0px"
	 width="235px" height="211.4px" viewBox="0 0 235 211.4" style="enable-background:new 0 0 235 211.4;" xml:space="preserve">
<style type="text/css">
	.st0{fill:#13143A;}
	.st1{fill:#FFFFFF;}
	.st2{fill:#231F20;}
	.st3{fill:none;stroke:#FFFFFF;stroke-width:19;stroke-miterlimit:10;}
	.st4{font-family:'Merriweather-Bold';}
	.st5{font-size:17px;}
	.st6{fill:#FFFFFF;stroke:#FFFFFF;stroke-miterlimit:10;}
</style>
<text transform="matrix(1 0 0 1 58.6063 183.5356)" class="st4 st5">Add Designer</text>
<circle class="st0" cx="117.5" cy="86.4" r="72"/>
<path class="st1" d="M158.4,100.5v31.9h-35v-8.3H78.7V76.3c0-7.4,6-13.4,13.4-13.4h1.7c-2.6-2.5-4.2-6-4.2-9.9
	c0-7.6,6.2-13.8,13.8-13.8c7.6,0,13.8,6.2,13.8,13.8c0,3.9-1.6,7.4-4.2,9.9c7.4,0.5,13.1,6.7,13.1,14.2v14.8
	c2.1-2.6,5.2-4.4,8.8-4.7c-2.3-1.9-3.8-4.8-3.8-8c0-5.7,4.6-10.4,10.4-10.4c5.7,0,10.4,4.6,10.4,10.4c0,3.4-1.6,6.4-4.1,8.2
	C153.8,88.6,158.4,94,158.4,100.5z"/>
</svg>
