<?xml version="1.0" encoding="utf-8"?>
<!-- Generator: Adobe Illustrator 19.2.0, SVG Export Plug-In . SVG Version: 6.00 Build 0)  -->
<svg version="1.1" id="Layer_1" xmlns="http://www.w3.org/2000/svg" xmlns:xlink="http://www.w3.org/1999/xlink" x="0px" y="0px"
	 width="235px" height="211.4px" viewBox="0 0 235 211.4" style="enable-background:new 0 0 235 211.4;" xml:space="preserve">
<style type="text/css">
	.st0{fill:#13143A;}
	.st1{fill:#FFFFFF;}
	.st2{fill:#231F20;}
	.st3{fill:none;stroke:#FFFFFF;stroke-width:19;stroke-miterlimit:10;}
	.st4{font-family:'Merriweather-Bold';}
	.st5{font-size:17px;}
</style>
<circle class="st0" cx="114.3" cy="81.7" r="72"/>
<polygon class="st1" points="167.3,60.6 138.8,60.7 138.9,132.2 119.9,132.2 119.8,60.7 91.4,60.7 129.3,22 "/>
<path class="st1" d="M100.1,87.9c1.2-8-0.1-11.7-3.8-15.1c-6.1-5.4-20.4-5.5-26.5-0.1c-3.7,3.4-5,7.1-3.8,15.1h-5v30h43v-30H100.1z
	 M79,76.2c1.2-0.3,2.6-0.1,3.9-0.1c2.4,0.1,4.8-0.3,6.5,1.2c1.2,1.2,2.9,4.5,1.4,10.5H75.2C74.2,83.9,73.6,77.5,79,76.2z"/>
<text transform="matrix(1 0 0 1 18.1639 174.4404)"><tspan x="0" y="0" class="st4 st5">Share Without Editing </tspan><tspan x="43.7" y="20.4" class="st4 st5">Capabilities </tspan></text>
</svg>
