<svg xmlns="http://www.w3.org/2000/svg" width="235" height="211.4" viewBox="0 0 235 211.4"><style type="text/css">.st0{fill:#13143A;} .st1{fill:#FFFFFF;} .st2{fill:#231F20;} .st3{fill:none;stroke:#FFFFFF;stroke-width:19;stroke-miterlimit:10;} .st4{font-family:&apos;Merriweather-Bold&apos;;} .st5{font-size:17px;}</style><circle class="st0" cx="114.3" cy="81.7" r="72"/><path class="st1" d="M167.3 60.6l-28.5.1.1 71.5h-19l-.1-71.5h-28.4l37.9-38.7zm-67.2 27.3c1.2-8-.1-11.7-3.8-15.1-6.1-5.4-20.4-5.5-26.5-.1-3.7 3.4-5 7.1-3.8 15.1h-5v30h43v-30h-3.9zm-21.1-11.7c1.2-.3 2.6-.1 3.9-.1 2.4.1 4.8-.3 6.5 1.2 1.2 1.2 2.9 4.5 1.4 10.5h-15.6c-1-3.9-1.6-10.3 3.8-11.6z"/><text transform="translate(18.164 174.44)"><tspan x="0" y="0" class="st4 st5">Share Without Editing</tspan><tspan x="43.7" y="20.4" class="st4 st5">Capabilities</tspan></text></svg>