<?xml version="1.0" encoding="utf-8"?>
<!-- Generator: Adobe Illustrator 19.2.0, SVG Export Plug-In . SVG Version: 6.00 Build 0)  -->
<svg version="1.1" id="Layer_1" xmlns="http://www.w3.org/2000/svg" xmlns:xlink="http://www.w3.org/1999/xlink" x="0px" y="0px"
	 width="235px" height="211.4px" viewBox="0 0 235 211.4" style="enable-background:new 0 0 235 211.4;" xml:space="preserve">
<style type="text/css">
	.st0{fill:#13143A;}
	.st1{fill:#FFFFFF;}
	.st2{fill:#231F20;}
	.st3{fill:none;stroke:#FFFFFF;stroke-width:19;stroke-miterlimit:10;}
	.st4{font-family:'Merriweather-Bold';}
	.st5{font-size:17px;}
	.st6{fill:#FFFFFF;stroke:#FFFFFF;stroke-miterlimit:10;}
</style>
<text transform="matrix(1 0 0 1 10.8507 183.9559)" class="st4 st5">Search Project/Designer</text>
<circle class="st0" cx="114.3" cy="86.8" r="72"/>
<path class="st1" d="M135,95.7c-1.8-2-5-2.2-7-0.3l-0.1,0.1l-14.7-17.3c4.5-4.7,7.2-11,7.2-17.8c0-14.6-12.4-26.6-27.7-26.6
	S65,45.7,65,60.3s12.4,26.6,27.7,26.6c5,0,9.6-1.3,13.6-3.4l15.1,17.8l-0.2,0.1c-2,1.8-2.1,4.9-0.3,6.9l28.6,31.5l13.9-12.6
	L135,95.7z M92.7,78.2c-10.5,0-19.1-8-19.1-17.9c0-9.9,8.6-17.9,19.1-17.9s19.1,8,19.1,17.9C111.8,70.2,103.3,78.2,92.7,78.2z"/>
</svg>
