<svg xmlns="http://www.w3.org/2000/svg" width="235" height="211.4" viewBox="0 0 235 211.4"><style type="text/css">.st0{fill:#13143A;} .st1{fill:#FFFFFF;} .st2{fill:#231F20;} .st3{fill:none;stroke:#FFFFFF;stroke-width:19;stroke-miterlimit:10;} .st4{font-family:&apos;Merriweather-Bold&apos;;} .st5{font-size:17px;} .st6{fill:#FFFFFF;stroke:#FFFFFF;stroke-miterlimit:10;}</style><text transform="translate(10.851 183.956)" class="st4 st5">Search Project/Designer</text><circle class="st0" cx="114.3" cy="86.8" r="72"/><path class="st1" d="M135 95.7c-1.8-2-5-2.2-7-.3l-.1.1-14.7-17.3c4.5-4.7 7.2-11 7.2-17.8 0-14.6-12.4-26.6-27.7-26.6s-27.7 11.9-27.7 26.5 12.4 26.6 27.7 26.6c5 0 9.6-1.3 13.6-3.4l15.1 17.8-.2.1c-2 1.8-2.1 4.9-.3 6.9l28.6 31.5 13.9-12.6-28.4-31.5zm-42.3-17.5c-10.5 0-19.1-8-19.1-17.9 0-9.9 8.6-17.9 19.1-17.9s19.1 8 19.1 17.9c0 9.9-8.5 17.9-19.1 17.9z"/></svg>