<?xml version="1.0" encoding="utf-8"?>
<!-- Generator: Adobe Illustrator 19.2.0, SVG Export Plug-In . SVG Version: 6.00 Build 0)  -->
<svg version="1.1" id="Layer_1" xmlns="http://www.w3.org/2000/svg" xmlns:xlink="http://www.w3.org/1999/xlink" x="0px" y="0px"
	 width="487.3px" height="404.7px" viewBox="0 0 487.3 404.7" style="enable-background:new 0 0 487.3 404.7;" xml:space="preserve"
	>
<style type="text/css">
	.st0{fill:#C0D5ED;}
	.st1{fill:#13143A;}
	.st2{fill:#FFFFFF;}
	.st3{fill:none;stroke:#FFFFFF;stroke-width:19;stroke-miterlimit:10;}
</style>
<rect class="st0" width="487.3" height="404.7"/>
<circle class="st1" cx="141.4" cy="103.7" r="72"/>
<circle class="st1" cx="347.9" cy="103.7" r="72"/>
<circle class="st1" cx="141.4" cy="288.9" r="72"/>
<circle class="st1" cx="347.9" cy="288.9" r="72"/>
<path class="st2" d="M158.1,112.6c-1.8-2-5-2.2-7-0.3l-0.1,0.1l-14.7-17.3c4.5-4.7,7.2-11,7.2-17.8c0-14.6-12.4-26.6-27.7-26.6
	S88.1,62.6,88.1,77.3s12.4,26.6,27.7,26.6c5,0,9.6-1.3,13.6-3.4l15.1,17.8l-0.2,0.1c-2,1.8-2.1,4.9-0.3,6.9l28.6,31.5l13.9-12.6
	L158.1,112.6z M115.9,95.1c-10.5,0-19.1-8-19.1-17.9c0-9.9,8.6-17.9,19.1-17.9s19.1,8,19.1,17.9C134.9,87.1,126.4,95.1,115.9,95.1z"
	/>
<path class="st2" d="M388.8,117.8v31.9h-35v-8.3h-44.7V93.7c0-7.4,6-13.4,13.4-13.4h1.7c-2.6-2.5-4.2-6-4.2-9.9
	c0-7.6,6.2-13.8,13.8-13.8c7.6,0,13.8,6.2,13.8,13.8c0,3.9-1.6,7.4-4.2,9.9c7.4,0.5,13.1,6.7,13.1,14.2v14.8
	c2.1-2.6,5.2-4.4,8.8-4.7c-2.3-1.9-3.8-4.8-3.8-8c0-5.7,4.6-10.4,10.4-10.4c5.7,0,10.4,4.6,10.4,10.4c0,3.4-1.6,6.4-4.1,8.2
	C384.2,106,388.8,111.4,388.8,117.8z"/>
<path class="st2" d="M379.1,111.7c-1.7,1.3-3.9,2.1-6.3,2.1c-2.5,0-4.8-0.9-6.6-2.3c0.3,0,0.7,0,1,0h9.2
	C377.4,111.5,378.2,111.6,379.1,111.7z"/>
<path class="st2" d="M379.1,111.7c-1.7,1.3-3.9,2.1-6.3,2.1c-2.5,0-4.8-0.9-6.6-2.3c0.3,0,0.7,0,1,0h9.2
	C377.4,111.5,378.2,111.6,379.1,111.7z"/>
<polygon class="st2" points="196.2,277.3 196.2,300.4 154.7,300.4 154.7,341.9 131.6,341.9 131.6,300.4 90.1,300.4 90.1,277.3 
	131.6,277.3 131.6,235.8 154.7,235.8 154.7,277.3 "/>
<polygon class="st2" points="385.9,272.5 357.4,272.5 357.4,344 338.4,344 338.4,272.5 310,272.5 347.9,233.8 "/>
<path class="st3" d="M321.4,299"/>
</svg>
