<svg xmlns="http://www.w3.org/2000/svg" width="487.3" height="404.7" viewBox="0 0 487.3 404.7"><style type="text/css">.st0{fill:#C0D5ED;} .st1{fill:#13143A;} .st2{fill:#FFFFFF;} .st3{fill:none;stroke:#FFFFFF;stroke-width:19;stroke-miterlimit:10;}</style><path class="st0" d="M0 0h487.3v404.7h-487.3z"/><circle class="st1" cx="141.4" cy="103.7" r="72"/><circle class="st1" cx="347.9" cy="103.7" r="72"/><circle class="st1" cx="141.4" cy="288.9" r="72"/><circle class="st1" cx="347.9" cy="288.9" r="72"/><path class="st2" d="M158.1 112.6c-1.8-2-5-2.2-7-.3l-.1.1-14.7-17.3c4.5-4.7 7.2-11 7.2-17.8 0-14.6-12.4-26.6-27.7-26.6s-27.7 11.9-27.7 26.6 12.4 26.6 27.7 26.6c5 0 9.6-1.3 13.6-3.4l15.1 17.8-.2.1c-2 1.8-2.1 4.9-.3 6.9l28.6 31.5 13.9-12.6-28.4-31.6zm-42.2-17.5c-10.5 0-19.1-8-19.1-17.9 0-9.9 8.6-17.9 19.1-17.9s19.1 8 19.1 17.9c-.1 9.9-8.6 17.9-19.1 17.9zm272.9 22.7v31.9h-35v-8.3h-44.7v-47.7c0-7.4 6-13.4 13.4-13.4h1.7c-2.6-2.5-4.2-6-4.2-9.9 0-7.6 6.2-13.8 13.8-13.8 7.6 0 13.8 6.2 13.8 13.8 0 3.9-1.6 7.4-4.2 9.9 7.4.5 13.1 6.7 13.1 14.2v14.8c2.1-2.6 5.2-4.4 8.8-4.7-2.3-1.9-3.8-4.8-3.8-8 0-5.7 4.6-10.4 10.4-10.4 5.7 0 10.4 4.6 10.4 10.4 0 3.4-1.6 6.4-4.1 8.2 6 1.2 10.6 6.6 10.6 13zm-9.7-6.1c-1.7 1.3-3.9 2.1-6.3 2.1-2.5 0-4.8-.9-6.6-2.3h10.2c1 0 1.8.1 2.7.2zm0 0c-1.7 1.3-3.9 2.1-6.3 2.1-2.5 0-4.8-.9-6.6-2.3h10.2c1 0 1.8.1 2.7.2zm-182.9 165.6v23.1h-41.5v41.5h-23.1v-41.5h-41.5v-23.1h41.5v-41.5h23.1v41.5zm189.7-4.8h-28.5v71.5h-19v-71.5h-28.4l37.9-38.7z"/><path class="st3" d="M321.4 299"/></svg>